<?xml version="1.0" encoding="UTF-8"?><svg xmlns="http://www.w3.org/2000/svg" xmlns:xlink="http://www.w3.org/1999/xlink" viewBox="0 0 37.97 37.98"><defs><style>.e{fill:#fff;fill-rule:evenodd;}.f{fill:url(#d);}</style><linearGradient id="d" x1="18.59" y1="-15.1" x2="19.28" y2="44.35" gradientTransform="matrix(1, 0, 0, 1, 0, 0)" gradientUnits="userSpaceOnUse"><stop offset=".13" stop-color="#4ead33"/><stop offset=".79" stop-color="#099839"/></linearGradient></defs><g id="a"/><g id="b"><g id="c"><g><path class="f" d="M37.97,18.98c0,10.5-8.51,19-18.99,19S0,29.48,0,18.98,8.49,0,18.98,0s18.99,8.49,18.99,18.98Z"/><path class="e" d="M30.24,16.27c-1.26-5.26-5.79-8.84-11.26-8.92-.72,.03-1.5,.09-2.21,.23-7.67,1.53-11.61,10-7.91,16.82,.13,.19,.13,.36,.11,.57-.54,1.76-1.04,3.58-1.51,5.36q-.08,.32,.22,.23c1.87-.5,3.73-.98,5.59-1.44,.16-.05,.28-.05,.42,.03,2.4,1.22,4.93,1.55,7.58,1.06,6.33-1.22,10.49-7.67,8.97-13.94Zm-9.64,12.08c-.55,.11-1.07,.16-1.33,.11-2.04,0-3.68-.44-5.21-1.33-.22-.13-.38-.18-.59-.1-1.04,.26-2.06,.53-3.1,.8-.21,.07-.23,.04-.19-.19,.27-.96,.53-1.93,.83-2.92,.07-.27,.05-.46-.12-.68-2.09-3.4-2-7.6,.34-10.75,2.44-3.26,5.79-4.61,9.76-3.76,3.92,.82,6.44,3.38,7.33,7.28,1.27,5.34-2.34,10.65-7.74,11.53Z"/><path class="e" d="M22,24.4c-.4,.04-.81-.04-1.2-.17-2.64-.77-4.64-2.39-6.25-4.58-.6-.81-1.17-1.69-1.34-2.72-.24-1.2,.13-2.27,1.04-3.09,.3-.28,1.18-.42,1.54-.24,.12,.11,.18,.2,.26,.32,.33,.81,.68,1.58,1.01,2.36,.05,.16,.04,.32-.05,.49-.18,.35-.45,.65-.71,.95-.22,.19-.22,.42-.07,.64,.95,1.58,2.23,2.72,3.94,3.38,.25,.11,.44,.07,.59-.13,.3-.34,.59-.71,.86-1.07,.17-.23,.39-.27,.64-.17,.57,.27,1.12,.53,1.66,.78,.15,.07,.26,.13,.39,.18,.57,.28,.57,.33,.5,.94-.08,1.2-1,1.81-2.06,2.11-.29,.06-.52,.06-.77,.03Z"/></g></g></g></svg>