<?xml version="1.0" encoding="UTF-8"?><svg xmlns="http://www.w3.org/2000/svg" viewBox="0 0 37.98 37.94"><defs><style>.d{fill:#ccc;}</style></defs><g id="a"/><g id="b"><g id="c"><path class="d" d="M19,0c10.48,0,18.98,8.51,18.97,18.99,0,10.46-8.53,18.96-19,18.96C8.52,37.94,0,29.43,0,19,0,8.49,8.5,0,19,0Zm-5.96,7.09c-.49,1.21-.59,2.4-.18,3.59,.1,.3,.03,.46-.15,.69-.29,.39-.58,.8-.77,1.25-.52,1.24-.51,2.57-.53,3.88-.03,2.69,1.16,4.64,3.64,5.71,.82,.36,1.71,.54,2.46,.76-.17,.64-.34,1.33-.55,2.01-.05,.16-.21,.36-.37,.42-1.72,.57-3.43-.09-4.37-1.65-.46-.76-1.03-1.37-1.93-1.56-.39-.08-.79-.15-1.24,.18,.11,.15,.29,.22,.42,.34,.31,.28,.66,.56,.89,.9,.41,.59,.75,1.23,1.1,1.86,.55,1,1.32,1.74,2.43,2.12,1,.34,2,.29,3.06,.1v3.12h6.34c0-1.43-.02-2.82,0-4.22,.02-1.27-.02-2.51-.73-3.62,.63-.15,1.23-.26,1.81-.44,2.11-.69,3.65-1.97,4.23-4.21,.33-1.28,.22-2.58,.1-3.87-.11-1.21-.41-2.36-1.33-3.25-.07-.07-.07-.27-.03-.39,.35-1.04,.37-2.09,.04-3.14-.2-.64-.2-.66-.83-.41-1.09,.43-1.82,1.27-2.42,2.09-2.72-.92-5.36-.94-8.07,.02-.73-1-1.59-1.98-3.05-2.27Z"/></g></g></svg>