<?xml version="1.0" encoding="UTF-8"?><svg xmlns="http://www.w3.org/2000/svg" viewBox="0 0 35.44 35.86"><defs><style>.d{fill:#fff;}.e{fill:#069;}</style></defs><g id="a"/><g id="b"><g id="c"><g><path class="e" d="M35.44,32.28c0,1.98-1.6,3.58-3.57,3.58H3.57c-1.97,0-3.57-1.6-3.57-3.58V3.59C0,1.61,1.6,0,3.57,0H31.87c1.97,0,3.57,1.61,3.57,3.59v28.69Z"/><path class="d" d="M11.53,8.77c0,1.32-.97,2.38-2.57,2.38-1.51,0-2.48-1.07-2.48-2.38s1-2.38,2.54-2.38,2.48,1.04,2.51,2.38ZM6.6,28.37V13.03h4.77v15.34H6.6Z"/><path class="d" d="M14.23,17.93c0-1.91-.06-3.51-.13-4.89h4.14l.22,2.13h.09c.63-1,2.16-2.48,4.74-2.48,3.14,0,5.49,2.1,5.49,6.62v9.07h-4.77v-8.5c0-1.98-.69-3.33-2.42-3.33-1.32,0-2.1,.91-2.45,1.79-.13,.31-.16,.75-.16,1.19v8.85h-4.77v-10.45Z"/></g></g></g></svg>