<?xml version="1.0" encoding="UTF-8"?><svg xmlns="http://www.w3.org/2000/svg" viewBox="0 0 50.44 50.44"><defs><style>.d,.e{fill:#fff;}.e{font-family:BerlinSansFB-Reg, Berlin Sans FB;font-size:17.13px;}.f{fill-rule:evenodd;stroke:#fff;stroke-miterlimit:10;stroke-width:.44px;}</style></defs><g id="a"/><g id="b"><g id="c"><g><path class="f" d="M2.83,.22H47.61c.72,0,1.37,.29,1.85,.77s.77,1.13,.77,1.85V47.61c0,.72-.29,1.37-.77,1.85-.47,.47-1.13,.77-1.85,.77H2.83c-.72,0-1.37-.29-1.85-.77s-.77-1.13-.77-1.85V2.83C.22,2.12,.51,1.46,.99,.99c.47-.47,1.13-.77,1.85-.77Z"/><text class="e" transform="translate(33.11 18.56)"><tspan x="0" y="0">E</tspan></text><text class="e" transform="translate(5.52 43.11)"><tspan x="0" y="0">W</tspan></text><text class="e" transform="translate(32.68 43.13)"><tspan x="0" y="0">Y</tspan></text><text class="e" transform="translate(8.09 18.53)"><tspan x="0" y="0">L</tspan></text><rect class="d" x="24.97" y="2.24" width=".67" height="45.89" transform="translate(50.49 -.12) rotate(90)"/><rect class="d" x="24.97" y="2.24" width=".67" height="45.89" transform="translate(50.62 50.37) rotate(180)"/></g></g></g></svg>