<?xml version="1.0" encoding="UTF-8"?><svg xmlns="http://www.w3.org/2000/svg" viewBox="0 0 30 19.93"><defs><style>.d{fill:#ccc;}</style></defs><g id="a"/><g id="b"><g id="c"><g><path class="d" d="M30,15.34c-.1,.9-.09,1.81-.56,2.58-.34,.56-.77,1.11-1.26,1.55-.68,.61-1.46,.61-2.16,.02-.86-.72-1.66-1.51-2.48-2.28-.29-.28-.57-.57-.85-.86-.82-.85-1.78-1.25-3-1.23-3.28,.07-6.56,.05-9.85,.03-.93,0-1.69,.33-2.34,.96-1.01,.98-2.03,1.95-3.03,2.94-1.64,1.65-2.94,.58-3.76-.72C-.12,17.05-.06,15.58,.09,14.12c.33-3.28,1.38-6.36,2.59-9.39,.18-.44,.39-.87,.56-1.32,.17-.45,.39-.83,.88-1.01,.11-.04,.16-.24,.26-.35,.24-.27,.43-.65,.73-.79,.95-.42,1.95-.76,2.93-1.11,.89-.31,1.73-.11,2.55,.31,.29,.15,.65,.25,.97,.26,2.28,.02,4.56,.02,6.83,0,.3,0,.66-.05,.9-.2,1.08-.69,2.19-.6,3.31-.18,.76,.28,1.5,.61,2.24,.92,.14,.06,.31,.13,.37,.24,.45,.9,1.36,1.41,1.75,2.4,1.02,2.62,1.98,5.26,2.56,8.02,.24,1.12,.32,2.28,.47,3.42Zm-.58,0c-.01-1.54-.26-2.97-.61-4.38-.65-2.61-1.53-5.12-2.66-7.56-.11-.23-.35-.47-.58-.57-.91-.36-1.83-.74-2.79-.97-1.18-.29-2.25-.05-3.05,1-.36,.48-.79,.9-1.2,1.33-.34,.36-.76,.51-1.25,.51-1.44,.01-2.88,.03-4.32,.04-.69,0-1.29-.22-1.75-.76-.4-.47-.82-.92-1.22-1.38-.5-.58-1.14-.93-1.9-.82-.94,.14-1.89,.32-2.79,.62-.64,.21-1.35,.43-1.63,1.21-.69,1.91-1.45,3.8-2.07,5.73-.68,2.1-1.12,4.25-1.06,6.48,.03,1.1,.29,2.1,1.08,2.91,.88,.9,1.41,.96,2.34,.13,1.08-.97,2.11-2,3.14-3.02,.78-.76,1.69-1.16,2.78-1.15,3.42,0,6.83,0,10.25,0,.24,0,.48,.02,.71,.06,1.04,.16,1.75,.85,2.46,1.55,.89,.87,1.76,1.76,2.69,2.58,.91,.8,1.52,.73,2.35-.16,.14-.15,.27-.32,.39-.49,.64-.89,.7-1.92,.68-2.88ZM14.81,1.24v-.02c-1.11,0-2.22-.01-3.32,.01-.19,0-.46,.1-.56,.25-.58,.82-.56,.84,.09,1.59,.15,.17,.32,.32,.46,.49,.41,.51,.96,.68,1.59,.68,1.36-.01,2.73-.03,4.09-.01,1.03,.01,1.4-.87,2.01-1.42-.15-.37-.3-.74-.46-1.11-.01-.03-.03-.05-.04-.08-.11-.28-.3-.39-.62-.39-1.08,.02-2.16,0-3.23,0Zm4.75,1.03c1.08-1.17,2.37-1.13,3.7-.81,.51,.12,1.02,.26,1.53,.4-.35-.26-.73-.46-1.12-.6-.67-.25-1.35-.47-2.03-.7-1.01-.33-1.79,.23-2.63,.67l.55,1.04ZM10.58,1.09c-.73-.47-1.43-.79-2.27-.51-.54,.18-1.09,.32-1.62,.52-.53,.2-1.04,.45-1.56,.67,1.68-.32,3.31-1.02,4.96,.2l.49-.88Z"/><path class="d" d="M9.87,9.89c0-.25,0-.46,0-.66,0-.12,0-.24,.03-.36,.11-.36,.62-.52,1.35-.41,.36,.05,.59,.23,.6,.65,.02,.75,.04,.75,.78,.82,.51,.04,.66,.2,.68,.7,0,.04,0,.09,0,.13,.02,1.12,.02,1.13-1.09,1.19-.3,.02-.39,.12-.38,.4,.05,1.14-.3,1.05-1.13,1.05-.72,0-.85-.13-.86-.82,0-.64,0-.64-.63-.67-.29-.02-.72,.07-.76-.3-.06-.48,.03-.99,.1-1.47,.01-.08,.27-.17,.42-.19,.26-.04,.54-.03,.88-.05Zm2.99,1.1q0-.55-.52-.56c-.91-.03-.92-.05-.96-.94-.02-.52-.11-.57-.63-.54-.54,.02-.41,.4-.42,.71-.02,.65-.11,.75-.71,.77-.16,0-.33,0-.49,.02-.09,.01-.21,.07-.24,.15-.23,.45,0,.83,.51,.86,.85,.04,.91,.11,.94,.94,0,.17,.04,.45,.13,.47,.23,.07,.51,.08,.74,.02,.09-.02,.13-.29,.17-.45,.03-.11,.02-.24,.01-.36-.02-.42,.23-.59,.6-.63,.13-.02,.27-.02,.4,0,.37,.03,.55-.1,.47-.44Z"/><path class="d" d="M9.78,6.05c.01,1.54-1.1,2.66-2.65,2.67-1.46,0-2.63-1.18-2.64-2.66,0-1.37,1.23-2.6,2.62-2.62,1.32-.02,2.75,1.09,2.67,2.62Zm-2.66-2.09c-1.08-.12-2.16,.95-2.13,2.21,.03,1.14,1.13,2.12,2.22,2.05,1.21-.07,2.09-.97,2.1-2.22,0-1.01-.99-2.19-2.2-2.05Z"/><path class="d" d="M18.6,13.21c-1.44,.02-2.6-1.14-2.63-2.61-.02-1.49,1.13-2.63,2.68-2.65,1.38-.02,2.62,1.22,2.62,2.65,0,1.44-1.24,2.68-2.68,2.61Zm2.17-2.6c0-1.28-.91-2.16-2.23-2.16-1.16,0-2.07,.93-2.07,2.13,0,1.14,.92,2.14,1.98,2.15,1.37,0,2.32-.86,2.32-2.12Z"/><path class="d" d="M23.16,6.15c0-.68,.52-1.22,1.2-1.22,.71,0,1.25,.54,1.25,1.25,0,.66-.53,1.2-1.18,1.2-.8,0-1.26-.44-1.26-1.23Zm1.92,0c0-.44-.29-.73-.72-.72-.41,0-.74,.33-.74,.74,0,.41,.32,.75,.72,.75,.44,0,.74-.31,.74-.76Z"/><path class="d" d="M22.35,2.96c.66,0,1.22,.54,1.23,1.17,0,.66-.6,1.29-1.25,1.28-.7,0-1.24-.55-1.24-1.26,0-.74,.48-1.2,1.26-1.19Zm.72,1.15c-.01-.39-.38-.7-.79-.69-.4,.02-.72,.36-.72,.76,0,.4,.35,.72,.76,.72,.42,0,.76-.37,.75-.79Z"/><path class="d" d="M20.25,7.39c-.64,0-1.2-.55-1.2-1.19,0-.69,.56-1.27,1.23-1.28,.64-.01,1.27,.61,1.26,1.27,0,.66-.6,1.21-1.3,1.21Zm.81-1.2c0-.4-.39-.77-.78-.76-.39,.01-.76,.38-.75,.74,0,.42,.35,.75,.78,.75,.42,0,.76-.33,.76-.72Z"/><g><path class="d" d="M12.77,7.02c-.45,0-.83-.38-.83-.83,0-.48,.39-.88,.86-.89,.45,0,.88,.43,.88,.88,0,.46-.41,.84-.9,.84Zm.56-.84c0-.28-.27-.54-.55-.53-.27,0-.53,.26-.52,.51,0,.29,.25,.52,.54,.52,.29,0,.52-.23,.52-.5Z"/><path class="d" d="M17.01,7.02c-.45,0-.83-.38-.83-.83,0-.48,.39-.88,.86-.89,.45,0,.88,.43,.88,.88,0,.46-.41,.84-.9,.84Zm.56-.84c0-.28-.27-.54-.55-.53-.27,0-.53,.26-.52,.51,0,.29,.25,.52,.54,.52,.29,0,.52-.23,.52-.5Z"/></g><path class="d" d="M21.08,8.17c0-.68,.53-1.22,1.22-1.23,.66,0,1.29,.6,1.28,1.24,0,.64-.6,1.23-1.25,1.23-.69,0-1.25-.55-1.25-1.25Zm1.21,.76c.39,.01,.77-.36,.77-.78,0-.37-.38-.75-.76-.75-.35,0-.72,.35-.74,.72-.02,.42,.32,.8,.73,.81Z"/><path class="d" d="M13.53,2.76c0-.77,.61-1.4,1.38-1.4,.77,0,1.41,.62,1.41,1.38,0,.76-.63,1.4-1.39,1.41-.77,0-1.4-.62-1.41-1.39Zm1.39,.8c.47,0,.86-.38,.87-.85,0-.46-.35-.83-.82-.84-.48-.02-.88,.35-.89,.82-.01,.47,.36,.87,.84,.87Z"/><path class="d" d="M7.16,7.57c-.9,0-1.52-.62-1.53-1.51,0-.83,.65-1.49,1.51-1.52,.83-.02,1.51,.64,1.51,1.5,0,.92-.58,1.52-1.5,1.53Zm-.05-.45c.59,0,1.08-.45,1.08-1.01,0-.58-.46-1.05-1.04-1.06-.54,0-1.03,.48-1.04,1.02,0,.57,.44,1.04,1,1.05Z"/><path class="d" d="M18.55,12.07c-.79,0-1.47-.65-1.48-1.42-.02-.85,.67-1.56,1.51-1.58,.86-.02,1.53,.64,1.55,1.5,.02,.92-.75,1.59-1.58,1.5Zm.09-.45c.57,0,1-.46,.99-1.04,0-.59-.44-1.01-1.03-1-.59,0-1.01,.44-1.01,1.03,0,.62,.42,1.02,1.05,1.02Z"/></g></g></g></svg>