<?xml version="1.0" encoding="UTF-8"?><svg xmlns="http://www.w3.org/2000/svg" xmlns:xlink="http://www.w3.org/1999/xlink" viewBox="0 0 30 30"><defs><style>.e{fill:#fff;fill-rule:evenodd;}.f{fill:url(#d);}</style><linearGradient id="d" x1="14.69" y1="-11.93" x2="15.23" y2="35.04" gradientTransform="matrix(1, 0, 0, 1, 0, 0)" gradientUnits="userSpaceOnUse"><stop offset=".13" stop-color="#4ead33"/><stop offset=".79" stop-color="#099839"/></linearGradient></defs><g id="a"/><g id="b"><g id="c"><g><path class="f" d="M30,14.99c0,8.3-6.72,15.01-15.01,15.01S0,23.29,0,14.99,6.71,0,14.99,0s15.01,6.71,15.01,14.99Z"/><path class="e" d="M23.89,12.86c-.99-4.16-4.58-6.98-8.9-7.05-.57,.02-1.18,.07-1.74,.18-6.06,1.21-9.18,7.9-6.25,13.29,.1,.15,.1,.29,.08,.45-.43,1.39-.82,2.83-1.2,4.24q-.06,.25,.17,.18c1.48-.4,2.94-.78,4.42-1.14,.13-.04,.22-.04,.33,.02,1.89,.96,3.89,1.22,5.99,.84,5-.96,8.28-6.06,7.09-11.01Zm-7.61,9.54c-.44,.08-.85,.13-1.05,.09-1.61,0-2.91-.35-4.11-1.05-.17-.1-.3-.14-.46-.08-.82,.2-1.63,.42-2.45,.63-.17,.06-.19,.03-.15-.15,.22-.75,.42-1.52,.66-2.31,.05-.21,.04-.36-.09-.54-1.65-2.68-1.58-6,.27-8.49,1.93-2.57,4.57-3.64,7.71-2.97,3.1,.65,5.09,2.67,5.79,5.75,1,4.22-1.85,8.42-6.11,9.11Z"/><path class="e" d="M17.38,19.28c-.32,.03-.64-.03-.95-.13-2.09-.61-3.67-1.89-4.94-3.62-.47-.64-.92-1.34-1.06-2.15-.19-.95,.1-1.79,.82-2.44,.24-.22,.93-.33,1.22-.19,.09,.08,.14,.16,.2,.25,.26,.64,.53,1.24,.8,1.87,.04,.13,.03,.25-.04,.38-.14,.28-.35,.52-.56,.75-.17,.15-.17,.33-.06,.5,.75,1.25,1.76,2.15,3.11,2.67,.2,.08,.35,.06,.47-.1,.23-.27,.46-.56,.68-.85,.13-.18,.31-.21,.51-.13,.45,.21,.89,.42,1.31,.62,.12,.06,.2,.1,.31,.14,.45,.22,.45,.26,.4,.74-.06,.95-.79,1.43-1.63,1.67-.23,.05-.41,.05-.61,.02Z"/></g></g></g></svg>