<?xml version="1.0" encoding="UTF-8"?><svg xmlns="http://www.w3.org/2000/svg" viewBox="0 0 28.2 30"><defs><style>.d{fill:#f08;}</style></defs><g id="a"/><g id="b"><g id="c"><path class="d" d="M21.9,30h-4.67c-1.3,0-2.36-1.06-2.36-2.36v-5.14c0-.32-.26-.57-.57-.57h-3.83c-.32,0-.57,.26-.57,.57v5.14c0,1.3-1.06,2.36-2.36,2.36h-1.23c-1.3,0-2.35-1.06-2.35-2.36v-9.73c0-.32-.26-.57-.57-.57H1.69c-1.06,0-1.45-.59-1.57-.85-.12-.25-.31-.93,.38-1.74L12.47,.77c.42-.49,1.01-.77,1.63-.77h0c.61,0,1.21,.28,1.63,.77l2.16,2.52c.4-.59,1.16-.98,2.05-.98h1.95c1.3,0,2.36,1.06,2.36,2.36v4.92c0,.59,.35,1.54,.74,2l2.72,3.17c.69,.81,.49,1.49,.38,1.74s-.5,.84-1.57,.84h-1.69c-.32,0-.57,.26-.57,.57v9.73c0,1.3-1.06,2.36-2.36,2.36Zm-11.43-9.85h3.83c1.3,0,2.36,1.06,2.36,2.36v5.14c0,.32,.26,.57,.57,.57h4.67c.32,0,.57-.26,.57-.57v-9.73c0-1.3,1.06-2.36,2.36-2.36h1.22l-2.41-2.81c-.66-.78-1.17-2.14-1.17-3.16V4.67c0-.32-.26-.57-.57-.57h-1.95c-.34,0-.55,.15-.58,.21,0,.87-.58,1.16-.76,1.22-.32,.12-.99,.18-1.75-.72l-2.47-2.88c-.17-.2-.38-.19-.55,0L2.16,15.56h1.22c1.3,0,2.36,1.06,2.36,2.36v9.73c0,.32,.26,.57,.57,.57h1.23c.32,0,.57-.26,.57-.57v-5.14c0-1.3,1.06-2.36,2.36-2.36ZM18.41,3.86h0Z"/></g></g></svg>