<?xml version="1.0" encoding="UTF-8"?><svg xmlns="http://www.w3.org/2000/svg" viewBox="0 0 30 30"><defs><style>.d{fill:#ccc;}</style></defs><g id="a"/><g id="b"><g id="c"><g><path class="d" d="M30,15c0,8.3-6.71,15-15.01,15C6.7,30,0,23.28,0,14.98,0,6.7,6.71,0,15,0c8.3,0,15,6.7,15,15Zm-16.6,.45L5.36,7.42c-2.45,3.34-3.33,7.02-2.09,11.03,1.46,4.72,4.7,7.64,9.56,8.59,3.59,.7,6.86-.2,9.78-2.43-.07-.08-.1-.13-.14-.17-1.78-1.78-3.56-3.56-5.35-5.34-.08-.08-.23-.14-.35-.14-.84-.01-1.68,0-2.51,0-.1,0-.2,0-.32,0,0-.13,0-.22,0-.31,0-.84,0-1.68,0-2.51,0-.27-.12-.43-.4-.53v3.33c-.08,.01-.13,.02-.19,.02-2.49,0-4.98,0-7.46,0-.2,0-.29-.07-.29-.28,0-.97,0-1.94,0-2.91,0-.22,.1-.3,.31-.29,.46,0,.92,0,1.38,0,.93,0,1.87,.03,2.8,.03,1.06,0,2.13-.02,3.19-.03,.05,0,.1,0,.13-.01Zm9.46,.01c-.05,1.19,.45,2.29,.37,3.49h-2.2l3.58,3.59c3.34-3.95,3.99-11-.71-15.95C18.84,1.27,11.37,2.06,7.41,5.43c.06,.06,.11,.12,.16,.18,3.22,3.23,6.45,6.45,9.67,9.68,.14,.14,.28,.18,.46,.18,.84,0,1.69,0,2.53,0,.85,0,1.7,0,2.6,0Z"/><path class="d" d="M15.99,7.84c.08,.06,.15,.11,.22,.17,.37,.38,.74,.78,1.12,1.15,.72,.72,1.6,1.24,2.45,1.78,1.16,.74,2.05,1.71,2.57,3,.06,.14,.11,.28,.13,.43,.01,.08-.03,.18-.05,.26-.09-.03-.19-.04-.26-.1-.15-.12-.29-.26-.41-.4-.89-1.04-1.99-1.8-3.14-2.51-1.31-.81-2.27-1.92-2.77-3.39-.03-.09-.03-.19-.01-.29,0-.04,.08-.07,.15-.11Z"/><path class="d" d="M13.8,4.2c.03-.05,.05-.15,.1-.16,.06-.02,.17,0,.22,.04,.29,.28,.56,.6,.87,.87,.58,.51,1.16,1.03,1.8,1.47,.93,.64,1.93,1.18,2.65,2.09,.46,.58,.82,1.2,1.05,1.9,.03,.1-.02,.22-.04,.34-.11-.04-.24-.05-.31-.12-.76-.81-1.53-1.62-2.47-2.23-.61-.4-1.23-.78-1.81-1.22-.95-.72-1.59-1.68-1.99-2.8-.02-.05-.03-.1-.05-.17Z"/><path class="d" d="M23.69,18.94c-.15-1.03-.3-2.02-.43-3.02-.02-.13,.04-.27,.07-.41,.19,.06,.38,.09,.55,.18,.08,.05,.14,.19,.16,.3,.12,.61,.25,1.23,.33,1.85,.03,.24,0,.52-.08,.75-.09,.24-.34,.36-.6,.36Z"/></g></g></g></svg>