<?xml version="1.0" encoding="UTF-8"?><svg xmlns="http://www.w3.org/2000/svg" viewBox="0 0 25.29 30"><defs><style>.d{fill:#ccc;}</style></defs><g id="a"/><g id="b"><g id="c"><g><path class="d" d="M13.26,20.05h-1.25c-.08-.75-.16-1.51-.23-2.26-.14-1.68-.61-3.28-1.34-4.8-.55-1.15-1.13-2.29-1.39-3.56-.22-1.11-.18-2.2,.15-3.28,.52-1.7,1.48-3.18,2.43-4.65,.27-.41,.54-.82,.81-1.23,.05-.08,.12-.14,.22-.25,.5,.77,1.01,1.49,1.46,2.24,.52,.87,1.03,1.76,1.48,2.68,.91,1.85,1.02,3.76,.26,5.69-.37,.95-.79,1.88-1.23,2.8-.67,1.41-.99,2.9-1.16,4.43-.08,.72-.14,1.44-.21,2.21Z"/><path class="d" d="M13.82,20.06c.08-.52,.16-.98,.23-1.44,.25-1.56,.56-3.1,1.2-4.55,.5-1.14,1.13-2.22,2.28-2.83,1.53-.82,3.11-.74,4.67-.12,1.09,.43,1.96,1.14,2.55,2.19,.54,.96,.64,1.98,.39,3.03-.25,1.03-.73,1.92-1.6,2.56-1.23,.9-2.73,1.1-3.8-.17-.14-.17-.24-.36-.4-.6,.18,.02,.3,.03,.41,.04,.75,.06,1.31-.62,1.13-1.35-.25-1-1.18-1.45-2.34-1.2-1.59,.35-2.6,1.38-3.31,2.75-.23,.46-.38,.96-.59,1.43-.05,.1-.18,.21-.29,.24-.15,.04-.31,.01-.54,.01Z"/><path class="d" d="M5.9,18.12c-.7,1.41-2.09,1.84-3.48,1.2C.24,18.33-.76,15.17,.66,13.04c.89-1.33,2.19-2.06,3.76-2.3,1.12-.17,2.24-.12,3.27,.46,.67,.38,1.19,.91,1.61,1.54,.81,1.22,1.25,2.59,1.56,4,.22,.97,.35,1.96,.52,2.94,.02,.11,.02,.22,.03,.36-.12,0-.23,0-.34,.02-.32,.07-.42-.11-.5-.37-.4-1.29-1.05-2.44-2.13-3.28-.69-.54-1.49-.82-2.36-.84-1.02-.02-1.75,.67-1.71,1.57,.03,.65,.52,1.09,1.18,1.03,.11,0,.22-.03,.36-.05Z"/><path class="d" d="M12.62,22.58c-.99,0-1.97,0-2.96,0-.14,0-.29-.05-.42-.11-.47-.2-.76-.58-.72-.93,.04-.38,.49-.79,.95-.87,.24-.04,.49-.06,.74-.06,1.62,0,3.23-.01,4.85,0,.49,0,.99,.03,1.39,.39,.39,.36,.38,.91-.03,1.25-.4,.33-.87,.38-1.35,.38-.81,0-1.63,0-2.44,0v-.05Z"/><path class="d" d="M12.58,30c-.48-.81-.95-1.53-1.34-2.28-.31-.61-.25-1.25-.01-1.9,.31-.86,.57-1.74,.86-2.65h1.08c.34,1,.73,1.95,.97,2.93,.12,.49,.06,1.06-.07,1.55-.23,.87-.86,1.53-1.49,2.35Z"/><path class="d" d="M13.83,23.15c.22,0,.4-.02,.56,0,.09,.01,.2,.09,.24,.16,.49,1.02,1.63,1.45,2.65,.97,.97-.45,1.3-1.51,.78-2.48,.62,.1,1.2,.72,1.32,1.51,.17,1.05-.15,1.97-1,2.62-.87,.66-1.85,.86-2.87,.33-.98-.51-1.37-1.43-1.6-2.44-.04-.2-.05-.41-.08-.68Z"/><path class="d" d="M11.4,23.14c-.01,1.45-.72,2.91-2.04,3.3-.91,.27-1.74,.04-2.47-.51-.9-.68-1.26-1.87-.91-2.94,.19-.59,.59-1.03,1.2-1.23-.08,.3-.22,.58-.23,.87-.08,1.24,1.18,2.12,2.46,1.75,.58-.17,1.03-.48,1.26-1.08,.14-.36,.47-.09,.73-.18Z"/></g></g></g></svg>