<?xml version="1.0" encoding="UTF-8"?><svg xmlns="http://www.w3.org/2000/svg" viewBox="0 0 30 30"><defs><style>.d{fill:#fff;}.e{fill:#117bb8;}</style></defs><g id="a"/><g id="b"><g id="c"><g><rect class="e" width="30" height="30" rx="5.36" ry="5.36"/><g><g><rect class="d" x="8.2" y="11.66" width="3.1" height="10.03"/><path class="d" d="M9.74,10.34c1.01,0,1.84-.83,1.84-1.85s-.82-1.85-1.84-1.85-1.84,.83-1.84,1.85,.82,1.85,1.84,1.85Z"/></g><path class="d" d="M16.27,16.42c0-1.41,.65-2.25,1.89-2.25,1.14,0,1.69,.81,1.69,2.25v5.26h3.09v-6.35c0-2.69-1.52-3.99-3.65-3.99s-3.02,1.66-3.02,1.66v-1.35h-2.98v10.03h2.98v-5.26Z"/></g></g></g></g></svg>