<?xml version="1.0" encoding="UTF-8"?><svg xmlns="http://www.w3.org/2000/svg" viewBox="0 0 30 19.55"><defs><style>.d{fill:#f08;}</style></defs><g id="a"/><g id="b"><g id="c"><g><path class="d" d="M27.61,19.55H2.39c-1.32,0-2.39-1.05-2.39-2.34V2.34C0,1.05,1.07,0,2.39,0H27.61c1.32,0,2.39,1.05,2.39,2.34v14.87c0,1.29-1.07,2.34-2.39,2.34ZM2.39,2.06c-.18,0-.33,.12-.33,.28v14.87c0,.15,.15,.28,.33,.28H27.61c.18,0,.33-.12,.33-.28V2.34c0-.15-.15-.28-.33-.28H2.39Z"/><path class="d" d="M14.99,13.2c-.57,0-1.15-.16-1.61-.49L2.61,5.09c-.46-.33-.57-.97-.25-1.44,.33-.46,.97-.58,1.44-.25l10.78,7.62c.2,.14,.63,.15,.84,0L25.98,3.56c.47-.33,1.11-.22,1.44,.25,.33,.46,.22,1.11-.25,1.44l-10.57,7.47c-.46,.32-1.03,.49-1.61,.49Z"/><path class="d" d="M26.57,17.22c-.21,0-.42-.06-.6-.19l-6.52-4.7c-.46-.33-.57-.98-.23-1.44,.33-.46,.98-.57,1.44-.23l6.52,4.7c.46,.33,.57,.98,.23,1.44-.2,.28-.52,.43-.84,.43Z"/><path class="d" d="M3.2,17.07c-.32,0-.64-.15-.84-.43-.33-.46-.22-1.11,.24-1.44l6.57-4.66c.46-.33,1.11-.22,1.44,.24,.33,.46,.22,1.11-.24,1.44l-6.57,4.66c-.18,.13-.39,.19-.59,.19Z"/></g></g></g></svg>