<?xml version="1.0" encoding="UTF-8"?><svg xmlns="http://www.w3.org/2000/svg" viewBox="0 0 30 29.97"><defs><style>.d{fill:#ccc;}</style></defs><g id="a"/><g id="b"><g id="c"><path class="d" d="M15.01,0c8.28,0,14.99,6.72,14.99,15,0,8.26-6.74,14.98-15.01,14.98C6.73,29.97,0,23.25,0,15.01,0,6.71,6.71,0,15.01,0Zm-4.71,5.6c-.39,.96-.46,1.89-.14,2.84,.08,.24,.02,.36-.12,.54-.23,.31-.46,.63-.61,.98-.41,.98-.4,2.03-.42,3.07-.02,2.12,.92,3.66,2.88,4.51,.65,.28,1.35,.42,1.94,.6-.13,.5-.27,1.05-.43,1.58-.04,.13-.17,.29-.29,.33-1.36,.45-2.71-.07-3.45-1.31-.36-.6-.82-1.08-1.53-1.23-.3-.06-.62-.12-.98,.15,.09,.12,.23,.17,.33,.27,.25,.22,.52,.44,.71,.71,.32,.47,.59,.97,.87,1.47,.44,.79,1.04,1.38,1.92,1.67,.79,.27,1.58,.23,2.41,.08v2.47h5.01c0-1.13-.01-2.23,0-3.33,.01-1-.01-1.98-.57-2.86,.5-.12,.97-.2,1.43-.35,1.67-.54,2.88-1.56,3.34-3.32,.26-1.01,.17-2.04,.08-3.06-.09-.96-.32-1.87-1.05-2.57-.06-.05-.05-.21-.02-.31,.28-.82,.29-1.65,.03-2.48-.16-.51-.16-.52-.65-.32-.86,.34-1.44,1-1.91,1.65-2.15-.73-4.24-.74-6.37,.01-.58-.79-1.26-1.56-2.41-1.79Z"/></g></g></svg>