<?xml version="1.0" encoding="UTF-8"?><svg xmlns="http://www.w3.org/2000/svg" viewBox="0 0 25.66 30"><defs><style>.d{fill:#ccc;}</style></defs><g id="a"/><g id="b"><g id="c"><path class="d" d="M7.07,17.33c.08-.55,.18-1.07,.23-1.59,.02-.19-.07-.39-.12-.58-.69-2.88-1.39-5.76-2.08-8.64-.35-1.44,.6-2.85,2.06-3.08,.35-.05,.7,0,1.04,.11,.04,.01,.08,.02,.13,.04-.06-.3-.14-.58-.16-.86-.13-1.3,.8-2.49,2.05-2.7,1.29-.22,2.59,.61,2.9,2,.36,1.6,.76,3.18,1.14,4.78,.41,1.7,.82,3.4,1.25,5.11,.06-.26,.13-.51,.19-.77,.54-2.25,1.08-4.49,1.62-6.74,.12-.48,.22-.97,.36-1.45,.28-1,1.18-1.72,2.23-1.81,.99-.08,1.96,.49,2.41,1.39,.3,.6,.33,1.22,.16,1.86-.12,.45-.22,.91-.34,1.39,.15-.04,.29-.09,.43-.12,1.4-.3,2.69,.5,3.02,1.87,.1,.43,.09,.85-.03,1.27-.59,2.13-1.18,4.25-1.76,6.38-.07,.25-.06,.53-.08,.79-.09,1.26-.17,2.53-.25,3.79-.07,1.09-.15,2.19-.22,3.28-.04,.58-.07,1.16-.11,1.74-.1,1.31-.62,2.45-1.51,3.4-.85,.9-1.89,1.47-3.1,1.69-.31,.06-.63,.08-.94,.09-1.69,0-3.37,.01-5.06,0-1.88-.01-3.39-.76-4.54-2.26-1.1-1.43-2.21-2.85-3.32-4.27-1.22-1.56-2.43-3.12-3.65-4.69-.19-.25-.42-.48-.57-.75-.53-.91-.59-1.85-.06-2.77,.53-.93,1.36-1.43,2.45-1.45,.86-.02,1.57,.33,2.12,.99,.68,.82,1.36,1.63,2.04,2.45,.02,.03,.04,.05,.09,.1Zm7.93,11.41h0c.84,0,1.67,0,2.51,0,.65,0,1.27-.12,1.86-.4,1.38-.67,2.22-1.75,2.48-3.26,.08-.48,.08-.98,.11-1.47,.06-.93,.13-1.85,.19-2.78,.05-.79,.1-1.58,.16-2.37,.05-.77,.1-1.55,.15-2.32,.03-.41,.03-.83,.13-1.23,.55-2.04,1.12-4.08,1.68-6.12,.07-.24,.14-.5,.13-.74-.04-.79-.77-1.31-1.56-1.17-.46,.09-.8,.32-.96,.78-.04,.13-.07,.26-.1,.39-.6,2.29-1.21,4.58-1.8,6.88-.09,.36-.41,.6-.8,.51-.36-.09-.54-.43-.44-.83,.06-.25,.12-.49,.18-.74,.36-1.5,.72-3,1.08-4.5,.43-1.81,.87-3.62,1.3-5.43,.1-.4,0-.77-.25-1.08-.3-.37-.71-.52-1.18-.43-.54,.1-.88,.44-1.01,.98-.2,.84-.4,1.68-.6,2.52-.5,2.1-1.01,4.21-1.52,6.31-.2,.84-.4,1.68-.6,2.52-.05,.23-.17,.41-.4,.49-.41,.14-.75-.07-.85-.52-.21-.87-.41-1.75-.62-2.62-.78-3.25-1.56-6.5-2.34-9.75-.11-.47-.34-.85-.81-1.03-.45-.17-.89-.1-1.26,.22-.39,.34-.51,.78-.39,1.29,.32,1.33,.64,2.66,.96,3.98,.6,2.5,1.21,5,1.8,7.51,.03,.14,.02,.32-.03,.46-.09,.24-.37,.38-.62,.36-.3-.03-.48-.19-.56-.51-.49-1.95-.98-3.89-1.46-5.84-.26-1.05-.52-2.11-.79-3.16-.17-.69-.81-1.09-1.5-.95-.66,.14-1.09,.79-.94,1.48,.21,.95,.45,1.9,.68,2.85,.52,2.15,1.03,4.3,1.55,6.46,.02,.1,.03,.21,.02,.32-.15,1.03-.32,2.05-.47,3.08-.04,.27-.19,.46-.45,.53-.27,.07-.49-.01-.67-.22-.16-.19-.32-.38-.48-.57-.86-1.03-1.72-2.07-2.59-3.1-.35-.42-.82-.58-1.36-.46-1.06,.23-1.77,1.45-.93,2.49,.1,.13,.21,.25,.31,.38,.86,1.11,1.72,2.21,2.58,3.32,1.51,1.94,3.02,3.88,4.53,5.82,.85,1.09,1.96,1.64,3.34,1.67,.87,.02,1.74,0,2.61,0Z"/></g></g></svg>