<?xml version="1.0" encoding="UTF-8"?><svg xmlns="http://www.w3.org/2000/svg" viewBox="0 0 25.83 30"><defs><style>.d{fill:#ccc;}</style></defs><g id="a"/><g id="b"><g id="c"><g><path class="d" d="M19.05,24.89l1.02-.26c.68-.18,1.41-.56,2.11-1.1,.82-.64,1.49-1.42,1.89-2.22,.41-.81,.48-1.53,.22-2.03-.36-.67-1.29-.88-2.46-.48l-.22,.08-.05,.23c-.4,1.78-1.06,3.42-1.95,4.87l-.56,.91Zm3.28-5.34c.61-.17,1.09-.09,1.21,.14,.09,.18,.09,.61-.23,1.23-.34,.68-.93,1.36-1.65,1.93-.26,.2-.5,.36-.72,.49,.6-1.17,1.06-2.44,1.38-3.79Z"/><path class="d" d="M3.59,25.98c2.12,2.59,4.9,4.02,7.82,4.02s5.46-1.31,7.55-3.7c.16,0,.31,0,.47,0,1.1-.08,2.32-.6,3.44-1.47,2.45-1.9,3.57-4.68,2.63-6.47h0c-.5-.94-1.5-1.41-2.74-1.31,.03-.25,.05-.5,.06-.75,.03-.45-.12-.88-.41-1.19-.25-.26-.57-.41-.91-.41H1.32c-.34,0-.66,.15-.91,.41-.29,.31-.44,.75-.41,1.2,.22,3.7,1.5,7.15,3.58,9.69ZM1.03,15.69c.06-.06,.16-.14,.29-.14H21.49c.13,0,.23,.08,.29,.14,.13,.14,.19,.34,.18,.55-.03,.41-.07,.84-.12,1.25l-.08,.6,.59-.12c1.13-.24,2,.05,2.39,.79h0c.73,1.38-.34,3.79-2.4,5.39-.99,.77-2.04,1.23-2.98,1.3-.19,.01-.36,.01-.54,0l-.22-.03-.15,.17c-1.94,2.3-4.45,3.57-7.05,3.57-5.49,0-10.12-5.67-10.56-12.9-.01-.21,.06-.42,.18-.56Z"/><path class="d" d="M12.67,4.3c-.18,.22-.36,.43-.59,.63-.23,.21-.48,.43-.74,.65-.51,.46-1.08,.98-1.5,1.69-.43,.71-.62,1.62-.5,2.42,.1,.81,.44,1.52,.88,2.12,.45,.59,.99,1.08,1.62,1.4-.75-1.18-1.23-2.45-1.16-3.59,.04-.57,.21-1.05,.52-1.48,.31-.44,.76-.84,1.27-1.29,.98-.83,2.35-2.17,2.17-4.04-.05-.45-.24-.91-.53-1.24-.28-.34-.62-.56-.95-.73-.66-.33-1.28-.49-1.88-.86,.33,.64,.96,1.08,1.4,1.54,.47,.45,.68,.9,.63,1.36-.04,.45-.29,.96-.64,1.4Z"/><path class="d" d="M8.12,12.27c-.56-.76-.96-1.59-1.07-2.43-.1-.84,.16-1.65,.7-2.26,.56-.64,1.33-1.25,1.87-2.09,.27-.41,.51-.9,.5-1.45-.02-.56-.37-1-.76-1.24,.27,.39,.43,.82,.35,1.22-.08,.4-.33,.75-.61,1.07-.58,.66-1.3,1.19-1.99,1.93-.33,.4-.6,.87-.73,1.39-.12,.52-.12,1.06,.02,1.56,.26,1,.92,1.81,1.72,2.3Z"/><path class="d" d="M13.49,8.19c-.25,.39-.42,.84-.46,1.31-.04,.46,.02,.93,.18,1.34,.3,.83,.89,1.51,1.6,1.92-.47-.68-.82-1.38-.96-2.11-.15-.72-.03-1.42,.35-1.99,.38-.57,1.02-1.07,1.57-1.71,.28-.32,.53-.68,.68-1.1,.14-.42,.15-.89,0-1.27-.05,.85-.55,1.41-1.14,1.9-.58,.5-1.29,.94-1.82,1.71Z"/></g></g></g></svg>